<svg width="230" height="230" viewBox="0 0 230 230" fill="none" xmlns="http://www.w3.org/2000/svg">
<path d="M102.5 8.37109C110.235 3.90544 119.765 3.90544 127.5 8.37109L201.093 50.8604C208.828 55.3261 213.593 63.5792 213.593 72.5107V157.489C213.593 166.421 208.828 174.674 201.093 179.14L127.5 221.629C119.765 226.095 110.235 226.095 102.5 221.629L28.9072 179.14C21.1723 174.674 16.4074 166.421 16.4072 157.489V72.5107C16.4074 63.5792 21.1723 55.3261 28.9072 50.8604L102.5 8.37109Z" fill="white" stroke="#0077FF" stroke-width="2"/>
<path d="M106 25.1962C111.569 21.9808 118.431 21.9808 124 25.1962L188.272 62.3038C193.842 65.5192 197.272 71.4615 197.272 77.8923V152.108C197.272 158.538 193.842 164.481 188.272 167.696L124 204.804C118.431 208.019 111.569 208.019 106 204.804L41.7276 167.696C36.1584 164.481 32.7276 158.538 32.7276 152.108V77.8923C32.7276 71.4615 36.1584 65.5192 41.7276 62.3038L106 25.1962Z" fill="#D9EAFF"/>
<path d="M90.8006 110.222L86.2543 116.216C85.9101 116.67 85.4147 116.96 84.8564 117.035C84.7598 117.048 84.6633 117.056 84.5667 117.056C84.1049 117.056 83.6642 116.905 83.2989 116.628L80.6332 114.596C79.9994 114.113 79.8818 113.198 80.3646 112.564C80.8473 111.93 81.7625 111.813 82.3963 112.296L84.4281 113.845L88.5001 108.484C88.9828 107.85 89.8854 107.72 90.5318 108.203C91.1657 108.685 91.2958 109.588 90.8131 110.234L90.8006 110.222ZM119.376 108.01C118.742 107.527 117.827 107.657 117.344 108.291L113.272 113.652L111.24 112.103C110.606 111.62 109.691 111.737 109.209 112.371C108.726 113.005 108.843 113.92 109.477 114.403L112.143 116.435C112.508 116.716 112.962 116.863 113.411 116.863C113.507 116.863 113.604 116.863 113.7 116.842C114.259 116.766 114.754 116.477 115.098 116.023L119.645 110.029C120.127 109.395 119.997 108.48 119.363 107.997L119.376 108.01ZM148.24 137.336C147.606 136.853 146.691 136.983 146.208 137.617L142.136 142.978L140.105 141.429C139.471 140.946 138.556 141.064 138.073 141.698C137.59 142.332 137.708 143.247 138.341 143.729L141.007 145.761C141.372 146.042 141.826 146.189 142.275 146.189C142.372 146.189 142.468 146.189 142.565 146.168C143.123 146.093 143.618 145.803 143.963 145.35L148.509 139.355C148.992 138.721 148.861 137.806 148.228 137.323L148.24 137.336ZM90.5234 137.336C89.8895 136.853 88.9744 136.983 88.4916 137.617L84.4196 142.978L82.3879 141.429C81.754 140.946 80.8389 141.064 80.3561 141.698C79.8734 142.332 79.9909 143.247 80.6248 143.729L83.2905 145.761C83.6557 146.042 84.1091 146.189 84.5583 146.189C84.6548 146.189 84.7514 146.189 84.8479 146.168C85.4062 146.093 85.9016 145.803 86.2458 145.35L90.7922 139.355C91.2749 138.721 91.1448 137.806 90.5109 137.323L90.5234 137.336ZM165.8 93.275V155.874C165.8 159.572 162.866 162.57 159.268 162.57H71.5319C67.9301 162.57 65 159.56 65 155.874V82.6455C65 78.9472 67.9344 75.9415 71.5319 75.9415H75.99V73.7501C75.99 70.0309 78.9453 67 82.5765 67C86.2076 67 89.163 70.0309 89.163 73.7501V75.9415H141.636V73.7501C141.636 70.0309 144.592 67 148.223 67C151.854 67 154.809 70.0309 154.809 73.7501V75.9415H159.267C162.869 75.9415 165.799 78.9514 165.799 82.6455L165.8 93.275ZM144.534 81.0335C144.534 83.1619 146.188 84.8914 148.219 84.8914C150.251 84.8914 151.905 83.1618 151.905 81.0335V73.7712C151.905 71.6428 150.251 69.9134 148.219 69.9134C146.188 69.9134 144.534 71.643 144.534 73.7712V81.0461V81.0335ZM78.8827 81.0335C78.8827 83.1619 80.5367 84.8914 82.5684 84.8914C84.6002 84.8914 86.2542 83.1618 86.2542 81.0335V73.7586C86.2542 71.6303 84.6002 69.9008 82.5684 69.9008C80.5367 69.9008 78.8827 71.6304 78.8827 73.7586V81.0335ZM162.911 155.874V94.7236H148.685C147.892 94.7236 147.232 94.0772 147.232 93.2711C147.232 92.4651 147.879 91.8186 148.685 91.8186H162.911V82.642C162.911 80.5473 161.278 78.8387 159.268 78.8387H154.809V81.03C154.809 84.7493 151.854 87.7801 148.223 87.7801C144.592 87.7801 141.637 84.7493 141.637 81.03V78.8387L89.1674 78.8429V81.0342C89.1674 84.7535 86.2121 87.7843 82.5809 87.7843C78.9497 87.7843 75.9944 84.7535 75.9944 81.0342V78.8429H71.5363C69.5255 78.8429 67.8926 80.5513 67.8926 82.6462V91.8228H141.754C142.547 91.8228 143.206 92.4693 143.206 93.2753C143.206 94.0813 142.56 94.7278 141.754 94.7278L67.8883 94.7236V155.87C67.8883 157.964 69.5212 159.673 71.532 159.673H159.268C161.279 159.673 162.912 157.964 162.912 155.87L162.911 155.874ZM150.98 101.121H135.625C133.614 101.121 131.993 102.788 131.993 104.828V109.458C131.993 110.251 132.64 110.911 133.446 110.911C134.252 110.911 134.899 110.264 134.899 109.458V104.828C134.899 104.374 135.23 104.009 135.642 104.009H150.997C151.405 104.009 151.74 104.374 151.74 104.828V120.692C151.74 121.145 151.409 121.51 150.997 121.51H135.642C135.234 121.51 134.899 121.145 134.899 120.692V116.607C134.899 115.814 134.252 115.155 133.446 115.155C132.64 115.155 131.993 115.801 131.993 116.607V120.692C131.993 122.732 133.626 124.399 135.625 124.399H150.98C152.991 124.399 154.612 122.732 154.612 120.692V104.828C154.612 102.788 152.979 101.121 150.98 101.121ZM154.612 133.973V149.838C154.612 151.878 152.979 153.544 150.98 153.544H135.625C133.614 153.544 131.993 151.878 131.993 149.838V133.973C131.993 131.933 133.626 130.267 135.625 130.267H150.98C152.991 130.267 154.612 131.933 154.612 133.973ZM151.723 133.973C151.723 133.52 151.392 133.155 150.98 133.155H135.625C135.217 133.155 134.882 133.52 134.882 133.973V149.838C134.882 150.291 135.213 150.656 135.625 150.656H150.98C151.388 150.656 151.723 150.291 151.723 149.838V133.973ZM125.76 133.973V149.838C125.76 151.878 124.127 153.544 122.129 153.544H106.773C104.762 153.544 103.142 151.878 103.142 149.838V133.973C103.142 131.933 104.775 130.267 106.773 130.267H122.129C124.139 130.267 125.76 131.933 125.76 133.973ZM122.867 133.973C122.867 133.52 122.536 133.155 122.124 133.155H106.769C106.361 133.155 106.026 133.52 106.026 133.973V149.838C106.026 150.291 106.357 150.656 106.769 150.656H122.124C122.532 150.656 122.867 150.291 122.867 149.838V133.973ZM118.741 137.592C118.17 137.021 117.259 137.021 116.701 137.592L114.442 139.85L112.184 137.592C111.613 137.021 110.702 137.021 110.144 137.592C109.573 138.163 109.573 139.074 110.144 139.632L112.402 141.891L110.144 144.149C109.573 144.72 109.573 145.631 110.144 146.189C110.425 146.471 110.799 146.609 111.164 146.609C111.529 146.609 111.907 146.471 112.184 146.189L114.442 143.931L116.701 146.189C116.982 146.471 117.356 146.609 117.721 146.609C118.086 146.609 118.464 146.471 118.741 146.189C119.312 145.618 119.312 144.707 118.741 144.149L116.482 141.891L118.741 139.632C119.312 139.061 119.312 138.15 118.741 137.592ZM125.802 104.698V120.624C125.802 122.677 124.169 124.343 122.158 124.343H106.727C104.716 124.343 103.083 122.677 103.083 120.624V104.698C103.083 102.645 104.716 100.978 106.727 100.978H122.158C124.169 100.978 125.802 102.645 125.802 104.698ZM122.909 104.698C122.909 104.244 122.578 103.871 122.158 103.871H106.727C106.307 103.871 105.976 104.236 105.976 104.698V120.624C105.976 121.078 106.307 121.451 106.727 121.451H122.158C122.578 121.451 122.909 121.086 122.909 120.624V104.698ZM96.9037 133.974V149.838C96.9037 151.878 95.2708 153.544 93.2726 153.544H77.9168C75.906 153.544 74.2856 151.878 74.2856 149.838V133.974C74.2856 131.933 75.9185 130.267 77.9168 130.267H93.2726C95.2834 130.267 96.9037 131.933 96.9037 133.974ZM94.003 133.974C94.003 133.52 93.6714 133.155 93.26 133.155H77.9042C77.497 133.155 77.1611 133.52 77.1611 133.974V149.838C77.1611 150.291 77.4928 150.656 77.9042 150.656H93.26C93.6672 150.656 94.003 150.291 94.003 149.838V133.974ZM96.9037 104.828V120.692C96.9037 122.732 95.2708 124.399 93.2726 124.399H77.9168C75.906 124.399 74.2856 122.732 74.2856 120.692V104.828C74.2856 102.788 75.9185 101.121 77.9168 101.121H93.2726C95.2834 101.121 96.9037 102.788 96.9037 104.828ZM94.003 104.828C94.003 104.374 93.6714 104.009 93.26 104.009H77.9042C77.497 104.009 77.1611 104.374 77.1611 104.828V120.692C77.1611 121.145 77.4928 121.51 77.9042 121.51H93.26C93.6672 121.51 94.003 121.145 94.003 120.692V104.828ZM139 117.056C139.281 117.338 139.655 117.476 140.02 117.476C140.385 117.476 140.763 117.338 141.04 117.056L143.299 114.798L145.557 117.056C145.838 117.338 146.212 117.476 146.577 117.476C146.943 117.476 147.32 117.338 147.597 117.056C148.168 116.485 148.168 115.574 147.597 115.016L145.339 112.758L147.597 110.499C148.168 109.928 148.168 109.017 147.597 108.459C147.026 107.888 146.116 107.888 145.557 108.459L143.299 110.718L141.04 108.459C140.469 107.888 139.558 107.888 139 108.459C138.429 109.03 138.429 109.941 139 110.499L141.259 112.758L139 115.016C138.429 115.587 138.429 116.498 139 117.056Z" fill="#0077FF"/>
</svg>
